<?xml version="1.0" encoding="UTF-8" standalone="no"?>
<!-- Created with Inkscape (http://www.inkscape.org/) -->

<svg
   version="1.1"
   id="svg2"
   width="1122.5601"
   height="793.27997"
   viewBox="0 0 1122.5601 793.27997"
   xmlns="http://www.w3.org/2000/svg"
   xmlns:svg="http://www.w3.org/2000/svg">
  <defs
     id="defs6">
    <clipPath
       clipPathUnits="userSpaceOnUse"
       id="clipPath16">
      <path
         d="M 0,0 H 3508.3335 V 2480 H 0 Z"
         clip-rule="evenodd"
         id="path14" />
    </clipPath>
    <clipPath
       clipPathUnits="userSpaceOnUse"
       id="clipPath28">
      <path
         d="M 25.000002,25.000002 H 3403.1252 V 1662.5001 H 25.000002 Z"
         clip-rule="evenodd"
         id="path26" />
    </clipPath>
    <clipPath
       clipPathUnits="userSpaceOnUse"
       id="clipPath88">
      <path
         d="M 353.12503,181.25002 H 3359.3752 V 1490.6251 H 353.12503 Z"
         clip-rule="evenodd"
         id="path86" />
    </clipPath>
    <clipPath
       clipPathUnits="userSpaceOnUse"
       id="clipPath284">
      <path
         d="M 25.000002,25.000002 H 3403.1252 V 1662.5001 H 25.000002 Z"
         clip-rule="evenodd"
         id="path282" />
    </clipPath>
    <clipPath
       clipPathUnits="userSpaceOnUse"
       id="clipPath378">
      <path
         d="M 25.000002,25.000002 H 3403.1252 V 1662.5001 H 25.000002 Z"
         clip-rule="evenodd"
         id="path376" />
    </clipPath>
  </defs>
  <g
     id="g8"
     transform="matrix(0.31999998,0,0,0.31999998,0,2.3165332e-5)">
    <g
       id="g10">
      <g
         id="g12"
         clip-path="url(#clipPath16)">
        <g
           id="g18"
           transform="matrix(3.1250002,0,0,3.1250002,25.000002,25.000002)">
          <path
             d="M 0,0 H 1081 V 524 H 0 Z"
             style="fill:#ffffff;fill-opacity:1;fill-rule:nonzero;stroke:none"
             id="path20" />
        </g>
      </g>
    </g>
    <g
       id="g22">
      <g
         id="g24"
         clip-path="url(#clipPath28)">
        <g
           id="g30"
           transform="matrix(3.1250002,0,0,3.1250002,25.000002,25.000002)">
          <path
             d="m 105,50 h 962 V 469 H 105 Z"
             style="fill:#eaeaf2;fill-opacity:1;fill-rule:nonzero;stroke:none"
             id="path32" />
        </g>
        <g
           id="g34"
           transform="matrix(3.1250002,0,0,3.1250002,653.75006,25.000002)">
          <path
             d="M 0,50 V 469"
             style="fill:none;stroke:#ffffff;stroke-width:1;stroke-linecap:butt;stroke-linejoin:miter;stroke-miterlimit:10;stroke-dasharray:none;stroke-opacity:0.75"
             id="path36" />
        </g>
        <g
           id="g38"
           transform="matrix(3.1250002,0,0,3.1250002,954.37506,25.000002)">
          <path
             d="M 0,50 V 469"
             style="fill:none;stroke:#ffffff;stroke-width:1;stroke-linecap:butt;stroke-linejoin:miter;stroke-miterlimit:10;stroke-dasharray:none;stroke-opacity:0.75"
             id="path40" />
        </g>
        <g
           id="g42"
           transform="matrix(3.1250002,0,0,3.1250002,1255.0001,25.000002)">
          <path
             d="M 0,50 V 469"
             style="fill:none;stroke:#ffffff;stroke-width:1;stroke-linecap:butt;stroke-linejoin:miter;stroke-miterlimit:10;stroke-dasharray:none;stroke-opacity:0.75"
             id="path44" />
        </g>
        <g
           id="g46"
           transform="matrix(3.1250002,0,0,3.1250002,1555.6251,25.000002)">
          <path
             d="M 0,50 V 469"
             style="fill:none;stroke:#ffffff;stroke-width:1;stroke-linecap:butt;stroke-linejoin:miter;stroke-miterlimit:10;stroke-dasharray:none;stroke-opacity:0.75"
             id="path48" />
        </g>
        <g
           id="g50"
           transform="matrix(3.1250002,0,0,3.1250002,1856.2501,25.000002)">
          <path
             d="M 0,50 V 469"
             style="fill:none;stroke:#ffffff;stroke-width:1;stroke-linecap:butt;stroke-linejoin:miter;stroke-miterlimit:10;stroke-dasharray:none;stroke-opacity:0.75"
             id="path52" />
        </g>
        <g
           id="g54"
           transform="matrix(3.1250002,0,0,3.1250002,2156.8752,25.000002)">
          <path
             d="M 0,50 V 469"
             style="fill:none;stroke:#ffffff;stroke-width:1;stroke-linecap:butt;stroke-linejoin:miter;stroke-miterlimit:10;stroke-dasharray:none;stroke-opacity:0.75"
             id="path56" />
        </g>
        <g
           id="g58"
           transform="matrix(3.1250002,0,0,3.1250002,2457.5002,25.000002)">
          <path
             d="M 0,50 V 469"
             style="fill:none;stroke:#ffffff;stroke-width:1;stroke-linecap:butt;stroke-linejoin:miter;stroke-miterlimit:10;stroke-dasharray:none;stroke-opacity:0.75"
             id="path60" />
        </g>
        <g
           id="g62"
           transform="matrix(3.1250002,0,0,3.1250002,2758.1252,25.000002)">
          <path
             d="M 0,50 V 469"
             style="fill:none;stroke:#ffffff;stroke-width:1;stroke-linecap:butt;stroke-linejoin:miter;stroke-miterlimit:10;stroke-dasharray:none;stroke-opacity:0.75"
             id="path64" />
        </g>
        <g
           id="g66"
           transform="matrix(3.1250002,0,0,3.1250002,3058.7502,25.000002)">
          <path
             d="M 0,50 V 469"
             style="fill:none;stroke:#ffffff;stroke-width:1;stroke-linecap:butt;stroke-linejoin:miter;stroke-miterlimit:10;stroke-dasharray:none;stroke-opacity:0.75"
             id="path68" />
        </g>
        <g
           id="g70"
           transform="matrix(3.1250002,0,0,3.1250002,25.000002,1156.2501)">
          <path
             d="m 105,0 h 962"
             style="fill:none;stroke:#ffffff;stroke-width:1;stroke-linecap:butt;stroke-linejoin:miter;stroke-miterlimit:10;stroke-dasharray:none;stroke-opacity:0.75"
             id="path72" />
        </g>
        <g
           id="g74"
           transform="matrix(3.1250002,0,0,3.1250002,25.000002,506.25003)">
          <path
             d="m 105,0 h 962"
             style="fill:none;stroke:#ffffff;stroke-width:1;stroke-linecap:butt;stroke-linejoin:miter;stroke-miterlimit:10;stroke-dasharray:none;stroke-opacity:0.75"
             id="path76" />
        </g>
        <g
           id="g78"
           transform="matrix(3.1250002,0,0,3.1250002,353.12503,25.000002)">
          <path
             d="M 0,50 V 469"
             style="fill:none;stroke:#ffffff;stroke-width:1;stroke-linecap:butt;stroke-linejoin:miter;stroke-miterlimit:10;stroke-dasharray:none;stroke-opacity:0.75"
             id="path80" />
        </g>
      </g>
    </g>
    <g
       id="g82">
      <g
         id="g84"
         clip-path="url(#clipPath88)">
        <g
           id="g90"
           transform="matrix(3.1250002,0,0,3.1250002,353.12503,181.25002)">
          <path
             d="M 371.39001,154.96001 V 53.040001 m -81.13,101.920009 V 53.040001 H 503.47 V 154.96001 Z m 0,-50.96001 H 95.470001 M 503.47,104 H 669.69 M 95.470001,129.48 V 78.519997 M 669.69,129.48 V 78.519997"
             style="fill:#219ebc;fill-opacity:0.5;fill-rule:nonzero;stroke:none"
             id="path92" />
          <path
             d="M 371.39001,154.96001 V 53.040001 m -81.13,101.920009 V 53.040001 H 503.47 V 154.96001 Z m 0,-50.96001 H 95.470001 M 503.47,104 H 669.69 M 95.470001,129.48 V 78.519997 M 669.69,129.48 V 78.519997"
             style="fill:none;stroke:#219ebc;stroke-width:1;stroke-linecap:butt;stroke-linejoin:miter;stroke-miterlimit:10;stroke-dasharray:none;stroke-opacity:1"
             id="path94" />
        </g>
        <g
           id="g96"
           transform="matrix(3.1250002,0,0,3.1250002,651.46881,729.90631)">
          <path
             d="m 3,0 c -2e-7,0.3978247 -0.076121,0.78050804 -0.2283618,1.1480502 -0.152241,0.3675421 -0.3690136,0.6919654 -0.650318,0.97327 -0.2813046,0.2813044 -0.6057279,0.498077 -0.97327,0.650318 C 0.78050804,2.9238791 0.3978247,2.9999998 0,3 -0.3978247,2.9999998 -0.78050804,2.923879 -1.1480502,2.7716382 -1.5155923,2.6193972 -1.8400156,2.4026246 -2.1213202,2.1213202 -2.4026246,1.8400156 -2.6193972,1.5155923 -2.7716382,1.1480502 -2.9238791,0.78050804 -2.9999998,0.3978247 -3,0 c 2e-7,-0.3978247 0.076121,-0.78050804 0.2283618,-1.1480502 0.152241,-0.3675421 0.3690136,-0.6919654 0.650318,-0.97327 0.2813046,-0.2813044 0.6057279,-0.498077 0.97327,-0.650318 C -0.78050804,-2.9238791 -0.3978247,-2.9999998 0,-3 c 0.3978247,2e-7 0.78050804,0.076121 1.1480502,0.2283618 0.3675421,0.152241 0.6919654,0.3690136 0.97327,0.650318 0.2813044,0.2813046 0.498077,0.6057279 0.650318,0.97327 C 2.9238791,-0.78050804 2.9999998,-0.3978247 3,0 Z"
             style="fill:#219ebc;fill-opacity:1;fill-rule:nonzero;stroke:none"
             id="path98" />
        </g>
        <g
           id="g100"
           transform="matrix(3.1250002,0,0,3.1250002,989.84387,764.50006)">
          <path
             d="m 3,0 c -2e-7,0.3978247 -0.076121,0.78050804 -0.2283618,1.1480502 -0.152241,0.3675421 -0.3690136,0.6919654 -0.650318,0.97327 -0.2813046,0.2813044 -0.6057279,0.498077 -0.97327,0.650318 C 0.78050804,2.9238791 0.3978247,2.9999998 0,3 -0.3978247,2.9999998 -0.78050804,2.923879 -1.1480502,2.7716382 -1.5155923,2.6193972 -1.8400156,2.4026246 -2.1213202,2.1213202 -2.4026246,1.8400156 -2.6193972,1.5155923 -2.7716382,1.1480502 -2.9238791,0.78050804 -2.9999998,0.3978247 -3,0 c 2e-7,-0.3978247 0.076121,-0.78050804 0.2283618,-1.1480502 0.152241,-0.3675421 0.3690136,-0.6919654 0.650318,-0.97327 0.2813046,-0.2813044 0.6057279,-0.498077 0.97327,-0.650318 C -0.78050804,-2.9238791 -0.3978247,-2.9999998 0,-3 c 0.3978247,2e-7 0.78050804,0.076121 1.1480502,0.2283618 0.3675421,0.152241 0.6919654,0.3690136 0.97327,0.650318 0.2813044,0.2813046 0.498077,0.6057279 0.650318,0.97327 C 2.9238791,-0.78050804 2.9999998,-0.3978247 3,0 Z"
             style="fill:#219ebc;fill-opacity:1;fill-rule:nonzero;stroke:none"
             id="path102" />
        </g>
        <g
           id="g104"
           transform="matrix(3.1250002,0,0,3.1250002,1019.7501,720.28131)">
          <path
             d="m 3,0 c -2e-7,0.3978247 -0.076121,0.78050804 -0.2283618,1.1480502 -0.152241,0.3675421 -0.3690136,0.6919654 -0.650318,0.97327 -0.2813046,0.2813044 -0.6057279,0.498077 -0.97327,0.650318 C 0.78050804,2.9238791 0.3978247,2.9999998 0,3 -0.3978247,2.9999998 -0.78050804,2.923879 -1.1480502,2.7716382 -1.5155923,2.6193972 -1.8400156,2.4026246 -2.1213202,2.1213202 -2.4026246,1.8400156 -2.6193972,1.5155923 -2.7716382,1.1480502 -2.9238791,0.78050804 -2.9999998,0.3978247 -3,0 c 2e-7,-0.3978247 0.076121,-0.78050804 0.2283618,-1.1480502 0.152241,-0.3675421 0.3690136,-0.6919654 0.650318,-0.97327 0.2813046,-0.2813044 0.6057279,-0.498077 0.97327,-0.650318 C -0.78050804,-2.9238791 -0.3978247,-2.9999998 0,-3 c 0.3978247,2e-7 0.78050804,0.076121 1.1480502,0.2283618 0.3675421,0.152241 0.6919654,0.3690136 0.97327,0.650318 0.2813044,0.2813046 0.498077,0.6057279 0.650318,0.97327 C 2.9238791,-0.78050804 2.9999998,-0.3978247 3,0 Z"
             style="fill:#219ebc;fill-opacity:1;fill-rule:nonzero;stroke:none"
             id="path106" />
        </g>
        <g
           id="g108"
           transform="matrix(3.1250002,0,0,3.1250002,1061.0001,773.31256)">
          <path
             d="m 3,0 c -2e-7,0.3978247 -0.076121,0.78050804 -0.2283618,1.1480502 -0.152241,0.3675421 -0.3690136,0.6919654 -0.650318,0.97327 -0.2813046,0.2813044 -0.6057279,0.498077 -0.97327,0.650318 C 0.78050804,2.9238791 0.3978247,2.9999998 0,3 -0.3978247,2.9999998 -0.78050804,2.923879 -1.1480502,2.7716382 -1.5155923,2.6193972 -1.8400156,2.4026246 -2.1213202,2.1213202 -2.4026246,1.8400156 -2.6193972,1.5155923 -2.7716382,1.1480502 -2.9238791,0.78050804 -2.9999998,0.3978247 -3,0 c 2e-7,-0.3978247 0.076121,-0.78050804 0.2283618,-1.1480502 0.152241,-0.3675421 0.3690136,-0.6919654 0.650318,-0.97327 0.2813046,-0.2813044 0.6057279,-0.498077 0.97327,-0.650318 C -0.78050804,-2.9238791 -0.3978247,-2.9999998 0,-3 c 0.3978247,2e-7 0.78050804,0.076121 1.1480502,0.2283618 0.3675421,0.152241 0.6919654,0.3690136 0.97327,0.650318 0.2813044,0.2813046 0.498077,0.6057279 0.650318,0.97327 C 2.9238791,-0.78050804 2.9999998,-0.3978247 3,0 Z"
             style="fill:#219ebc;fill-opacity:1;fill-rule:nonzero;stroke:none"
             id="path110" />
        </g>
        <g
           id="g112"
           transform="matrix(3.1250002,0,0,3.1250002,1202.1251,753.59375)">
          <path
             d="m 3,0 c -2e-7,0.3978247 -0.076121,0.78050804 -0.2283618,1.1480502 -0.152241,0.3675421 -0.3690136,0.6919654 -0.650318,0.97327 -0.2813046,0.2813044 -0.6057279,0.498077 -0.97327,0.650318 C 0.78050804,2.9238791 0.3978247,2.9999998 0,3 -0.3978247,2.9999998 -0.78050804,2.923879 -1.1480502,2.7716382 -1.5155923,2.6193972 -1.8400156,2.4026246 -2.1213202,2.1213202 -2.4026246,1.8400156 -2.6193972,1.5155923 -2.7716382,1.1480502 -2.9238791,0.78050804 -2.9999998,0.3978247 -3,0 c 2e-7,-0.3978247 0.076121,-0.78050804 0.2283618,-1.1480502 0.152241,-0.3675421 0.3690136,-0.6919654 0.650318,-0.97327 0.2813046,-0.2813044 0.6057279,-0.498077 0.97327,-0.650318 C -0.78050804,-2.9238791 -0.3978247,-2.9999998 0,-3 c 0.3978247,2e-7 0.78050804,0.076121 1.1480502,0.2283618 0.3675421,0.152241 0.6919654,0.3690136 0.97327,0.650318 0.2813044,0.2813046 0.498077,0.6057279 0.650318,0.97327 C 2.9238791,-0.78050804 2.9999998,-0.3978247 3,0 Z"
             style="fill:#219ebc;fill-opacity:1;fill-rule:nonzero;stroke:none"
             id="path114" />
        </g>
        <g
           id="g116"
           transform="matrix(3.1250002,0,0,3.1250002,1260.1876,726.43756)">
          <path
             d="m 3,0 c -2e-7,0.3978247 -0.076121,0.78050804 -0.2283618,1.1480502 -0.152241,0.3675421 -0.3690136,0.6919654 -0.650318,0.97327 -0.2813046,0.2813044 -0.6057279,0.498077 -0.97327,0.650318 C 0.78050804,2.9238791 0.3978247,2.9999998 0,3 -0.3978247,2.9999998 -0.78050804,2.923879 -1.1480502,2.7716382 -1.5155923,2.6193972 -1.8400156,2.4026246 -2.1213202,2.1213202 -2.4026246,1.8400156 -2.6193972,1.5155923 -2.7716382,1.1480502 -2.9238791,0.78050804 -2.9999998,0.3978247 -3,0 c 2e-7,-0.3978247 0.076121,-0.78050804 0.2283618,-1.1480502 0.152241,-0.3675421 0.3690136,-0.6919654 0.650318,-0.97327 0.2813046,-0.2813044 0.6057279,-0.498077 0.97327,-0.650318 C -0.78050804,-2.9238791 -0.3978247,-2.9999998 0,-3 c 0.3978247,2e-7 0.78050804,0.076121 1.1480502,0.2283618 0.3675421,0.152241 0.6919654,0.3690136 0.97327,0.650318 0.2813044,0.2813046 0.498077,0.6057279 0.650318,0.97327 C 2.9238791,-0.78050804 2.9999998,-0.3978247 3,0 Z"
             style="fill:#219ebc;fill-opacity:1;fill-rule:nonzero;stroke:none"
             id="path118" />
        </g>
        <g
           id="g120"
           transform="matrix(3.1250002,0,0,3.1250002,1330.2814,746.75006)">
          <path
             d="m 3,0 c -2e-7,0.3978247 -0.076121,0.78050804 -0.2283618,1.1480502 -0.152241,0.3675421 -0.3690136,0.6919654 -0.650318,0.97327 -0.2813046,0.2813044 -0.6057279,0.498077 -0.97327,0.650318 C 0.78050804,2.9238791 0.3978247,2.9999998 0,3 -0.3978247,2.9999998 -0.78050804,2.923879 -1.1480502,2.7716382 -1.5155923,2.6193972 -1.8400156,2.4026246 -2.1213202,2.1213202 -2.4026246,1.8400156 -2.6193972,1.5155923 -2.7716382,1.1480502 -2.9238791,0.78050804 -2.9999998,0.3978247 -3,0 c 2e-7,-0.3978247 0.076121,-0.78050804 0.2283618,-1.1480502 0.152241,-0.3675421 0.3690136,-0.6919654 0.650318,-0.97327 0.2813046,-0.2813044 0.6057279,-0.498077 0.97327,-0.650318 C -0.78050804,-2.9238791 -0.3978247,-2.9999998 0,-3 c 0.3978247,2e-7 0.78050804,0.076121 1.1480502,0.2283618 0.3675421,0.152241 0.6919654,0.3690136 0.97327,0.650318 0.2813044,0.2813046 0.498077,0.6057279 0.650318,0.97327 C 2.9238791,-0.78050804 2.9999998,-0.3978247 3,0 Z"
             style="fill:#219ebc;fill-opacity:1;fill-rule:nonzero;stroke:none"
             id="path122" />
        </g>
        <g
           id="g124"
           transform="matrix(3.1250002,0,0,3.1250002,1366.0626,732.78131)">
          <path
             d="m 3,0 c -2e-7,0.3978247 -0.076121,0.78050804 -0.2283618,1.1480502 -0.152241,0.3675421 -0.3690136,0.6919654 -0.650318,0.97327 -0.2813046,0.2813044 -0.6057279,0.498077 -0.97327,0.650318 C 0.78050804,2.9238791 0.3978247,2.9999998 0,3 -0.3978247,2.9999998 -0.78050804,2.923879 -1.1480502,2.7716382 -1.5155923,2.6193972 -1.8400156,2.4026246 -2.1213202,2.1213202 -2.4026246,1.8400156 -2.6193972,1.5155923 -2.7716382,1.1480502 -2.9238791,0.78050804 -2.9999998,0.3978247 -3,0 c 2e-7,-0.3978247 0.076121,-0.78050804 0.2283618,-1.1480502 0.152241,-0.3675421 0.3690136,-0.6919654 0.650318,-0.97327 0.2813046,-0.2813044 0.6057279,-0.498077 0.97327,-0.650318 C -0.78050804,-2.9238791 -0.3978247,-2.9999998 0,-3 c 0.3978247,2e-7 0.78050804,0.076121 1.1480502,0.2283618 0.3675421,0.152241 0.6919654,0.3690136 0.97327,0.650318 0.2813044,0.2813046 0.498077,0.6057279 0.650318,0.97327 C 2.9238791,-0.78050804 2.9999998,-0.3978247 3,0 Z"
             style="fill:#219ebc;fill-opacity:1;fill-rule:nonzero;stroke:none"
             id="path126" />
        </g>
        <g
           id="g128"
           transform="matrix(3.1250002,0,0,3.1250002,1404.6563,758.81256)">
          <path
             d="m 3,0 c -2e-7,0.3978247 -0.076121,0.78050804 -0.2283618,1.1480502 -0.152241,0.3675421 -0.3690136,0.6919654 -0.650318,0.97327 -0.2813046,0.2813044 -0.6057279,0.498077 -0.97327,0.650318 C 0.78050804,2.9238791 0.3978247,2.9999998 0,3 -0.3978247,2.9999998 -0.78050804,2.923879 -1.1480502,2.7716382 -1.5155923,2.6193972 -1.8400156,2.4026246 -2.1213202,2.1213202 -2.4026246,1.8400156 -2.6193972,1.5155923 -2.7716382,1.1480502 -2.9238791,0.78050804 -2.9999998,0.3978247 -3,0 c 2e-7,-0.3978247 0.076121,-0.78050804 0.2283618,-1.1480502 0.152241,-0.3675421 0.3690136,-0.6919654 0.650318,-0.97327 0.2813046,-0.2813044 0.6057279,-0.498077 0.97327,-0.650318 C -0.78050804,-2.9238791 -0.3978247,-2.9999998 0,-3 c 0.3978247,2e-7 0.78050804,0.076121 1.1480502,0.2283618 0.3675421,0.152241 0.6919654,0.3690136 0.97327,0.650318 0.2813044,0.2813046 0.498077,0.6057279 0.650318,0.97327 C 2.9238791,-0.78050804 2.9999998,-0.3978247 3,0 Z"
             style="fill:#219ebc;fill-opacity:1;fill-rule:nonzero;stroke:none"
             id="path130" />
        </g>
        <g
           id="g132"
           transform="matrix(3.1250002,0,0,3.1250002,1449.0626,780.15625)">
          <path
             d="m 3,0 c -2e-7,0.3978247 -0.076121,0.78050804 -0.2283618,1.1480502 -0.152241,0.3675421 -0.3690136,0.6919654 -0.650318,0.97327 -0.2813046,0.2813044 -0.6057279,0.498077 -0.97327,0.650318 C 0.78050804,2.9238791 0.3978247,2.9999998 0,3 -0.3978247,2.9999998 -0.78050804,2.923879 -1.1480502,2.7716382 -1.5155923,2.6193972 -1.8400156,2.4026246 -2.1213202,2.1213202 -2.4026246,1.8400156 -2.6193972,1.5155923 -2.7716382,1.1480502 -2.9238791,0.78050804 -2.9999998,0.3978247 -3,0 c 2e-7,-0.3978247 0.076121,-0.78050804 0.2283618,-1.1480502 0.152241,-0.3675421 0.3690136,-0.6919654 0.650318,-0.97327 0.2813046,-0.2813044 0.6057279,-0.498077 0.97327,-0.650318 C -0.78050804,-2.9238791 -0.3978247,-2.9999998 0,-3 c 0.3978247,2e-7 0.78050804,0.076121 1.1480502,0.2283618 0.3675421,0.152241 0.6919654,0.3690136 0.97327,0.650318 0.2813044,0.2813046 0.498077,0.6057279 0.650318,0.97327 C 2.9238791,-0.78050804 2.9999998,-0.3978247 3,0 Z"
             style="fill:#219ebc;fill-opacity:1;fill-rule:nonzero;stroke:none"
             id="path134" />
        </g>
        <g
           id="g136"
           transform="matrix(3.1250002,0,0,3.1250002,1478.3126,732.68756)">
          <path
             d="m 3,0 c -2e-7,0.3978247 -0.076121,0.78050804 -0.2283618,1.1480502 -0.152241,0.3675421 -0.3690136,0.6919654 -0.650318,0.97327 -0.2813046,0.2813044 -0.6057279,0.498077 -0.97327,0.650318 C 0.78050804,2.9238791 0.3978247,2.9999998 0,3 -0.3978247,2.9999998 -0.78050804,2.923879 -1.1480502,2.7716382 -1.5155923,2.6193972 -1.8400156,2.4026246 -2.1213202,2.1213202 -2.4026246,1.8400156 -2.6193972,1.5155923 -2.7716382,1.1480502 -2.9238791,0.78050804 -2.9999998,0.3978247 -3,0 c 2e-7,-0.3978247 0.076121,-0.78050804 0.2283618,-1.1480502 0.152241,-0.3675421 0.3690136,-0.6919654 0.650318,-0.97327 0.2813046,-0.2813044 0.6057279,-0.498077 0.97327,-0.650318 C -0.78050804,-2.9238791 -0.3978247,-2.9999998 0,-3 c 0.3978247,2e-7 0.78050804,0.076121 1.1480502,0.2283618 0.3675421,0.152241 0.6919654,0.3690136 0.97327,0.650318 0.2813044,0.2813046 0.498077,0.6057279 0.650318,0.97327 C 2.9238791,-0.78050804 2.9999998,-0.3978247 3,0 Z"
             style="fill:#219ebc;fill-opacity:1;fill-rule:nonzero;stroke:none"
             id="path138" />
        </g>
        <g
           id="g140"
           transform="matrix(3.1250002,0,0,3.1250002,1549.1251,758.90631)">
          <path
             d="m 3,0 c -2e-7,0.3978247 -0.076121,0.78050804 -0.2283618,1.1480502 -0.152241,0.3675421 -0.3690136,0.6919654 -0.650318,0.97327 -0.2813046,0.2813044 -0.6057279,0.498077 -0.97327,0.650318 C 0.78050804,2.9238791 0.3978247,2.9999998 0,3 -0.3978247,2.9999998 -0.78050804,2.923879 -1.1480502,2.7716382 -1.5155923,2.6193972 -1.8400156,2.4026246 -2.1213202,2.1213202 -2.4026246,1.8400156 -2.6193972,1.5155923 -2.7716382,1.1480502 -2.9238791,0.78050804 -2.9999998,0.3978247 -3,0 c 2e-7,-0.3978247 0.076121,-0.78050804 0.2283618,-1.1480502 0.152241,-0.3675421 0.3690136,-0.6919654 0.650318,-0.97327 0.2813046,-0.2813044 0.6057279,-0.498077 0.97327,-0.650318 C -0.78050804,-2.9238791 -0.3978247,-2.9999998 0,-3 c 0.3978247,2e-7 0.78050804,0.076121 1.1480502,0.2283618 0.3675421,0.152241 0.6919654,0.3690136 0.97327,0.650318 0.2813044,0.2813046 0.498077,0.6057279 0.650318,0.97327 C 2.9238791,-0.78050804 2.9999998,-0.3978247 3,0 Z"
             style="fill:#219ebc;fill-opacity:1;fill-rule:nonzero;stroke:none"
             id="path142" />
        </g>
        <g
           id="g144"
           transform="matrix(3.1250002,0,0,3.1250002,1597.2501,721.78131)">
          <path
             d="m 3,0 c -2e-7,0.3978247 -0.076121,0.78050804 -0.2283618,1.1480502 -0.152241,0.3675421 -0.3690136,0.6919654 -0.650318,0.97327 -0.2813046,0.2813044 -0.6057279,0.498077 -0.97327,0.650318 C 0.78050804,2.9238791 0.3978247,2.9999998 0,3 -0.3978247,2.9999998 -0.78050804,2.923879 -1.1480502,2.7716382 -1.5155923,2.6193972 -1.8400156,2.4026246 -2.1213202,2.1213202 -2.4026246,1.8400156 -2.6193972,1.5155923 -2.7716382,1.1480502 -2.9238791,0.78050804 -2.9999998,0.3978247 -3,0 c 2e-7,-0.3978247 0.076121,-0.78050804 0.2283618,-1.1480502 0.152241,-0.3675421 0.3690136,-0.6919654 0.650318,-0.97327 0.2813046,-0.2813044 0.6057279,-0.498077 0.97327,-0.650318 C -0.78050804,-2.9238791 -0.3978247,-2.9999998 0,-3 c 0.3978247,2e-7 0.78050804,0.076121 1.1480502,0.2283618 0.3675421,0.152241 0.6919654,0.3690136 0.97327,0.650318 0.2813044,0.2813046 0.498077,0.6057279 0.650318,0.97327 C 2.9238791,-0.78050804 2.9999998,-0.3978247 3,0 Z"
             style="fill:#219ebc;fill-opacity:1;fill-rule:nonzero;stroke:none"
             id="path146" />
        </g>
        <g
           id="g148"
           transform="matrix(3.1250002,0,0,3.1250002,1629.0001,779.50006)">
          <path
             d="m 3,0 c -2e-7,0.3978247 -0.076121,0.78050804 -0.2283618,1.1480502 -0.152241,0.3675421 -0.3690136,0.6919654 -0.650318,0.97327 -0.2813046,0.2813044 -0.6057279,0.498077 -0.97327,0.650318 C 0.78050804,2.9238791 0.3978247,2.9999998 0,3 -0.3978247,2.9999998 -0.78050804,2.923879 -1.1480502,2.7716382 -1.5155923,2.6193972 -1.8400156,2.4026246 -2.1213202,2.1213202 -2.4026246,1.8400156 -2.6193972,1.5155923 -2.7716382,1.1480502 -2.9238791,0.78050804 -2.9999998,0.3978247 -3,0 c 2e-7,-0.3978247 0.076121,-0.78050804 0.2283618,-1.1480502 0.152241,-0.3675421 0.3690136,-0.6919654 0.650318,-0.97327 0.2813046,-0.2813044 0.6057279,-0.498077 0.97327,-0.650318 C -0.78050804,-2.9238791 -0.3978247,-2.9999998 0,-3 c 0.3978247,2e-7 0.78050804,0.076121 1.1480502,0.2283618 0.3675421,0.152241 0.6919654,0.3690136 0.97327,0.650318 0.2813044,0.2813046 0.498077,0.6057279 0.650318,0.97327 C 2.9238791,-0.78050804 2.9999998,-0.3978247 3,0 Z"
             style="fill:#219ebc;fill-opacity:1;fill-rule:nonzero;stroke:none"
             id="path150" />
        </g>
        <g
           id="g152"
           transform="matrix(3.1250002,0,0,3.1250002,1660.6564,763.87506)">
          <path
             d="m 3,0 c -2e-7,0.3978247 -0.076121,0.78050804 -0.2283618,1.1480502 -0.152241,0.3675421 -0.3690136,0.6919654 -0.650318,0.97327 -0.2813046,0.2813044 -0.6057279,0.498077 -0.97327,0.650318 C 0.78050804,2.9238791 0.3978247,2.9999998 0,3 -0.3978247,2.9999998 -0.78050804,2.923879 -1.1480502,2.7716382 -1.5155923,2.6193972 -1.8400156,2.4026246 -2.1213202,2.1213202 -2.4026246,1.8400156 -2.6193972,1.5155923 -2.7716382,1.1480502 -2.9238791,0.78050804 -2.9999998,0.3978247 -3,0 c 2e-7,-0.3978247 0.076121,-0.78050804 0.2283618,-1.1480502 0.152241,-0.3675421 0.3690136,-0.6919654 0.650318,-0.97327 0.2813046,-0.2813044 0.6057279,-0.498077 0.97327,-0.650318 C -0.78050804,-2.9238791 -0.3978247,-2.9999998 0,-3 c 0.3978247,2e-7 0.78050804,0.076121 1.1480502,0.2283618 0.3675421,0.152241 0.6919654,0.3690136 0.97327,0.650318 0.2813044,0.2813046 0.498077,0.6057279 0.650318,0.97327 C 2.9238791,-0.78050804 2.9999998,-0.3978247 3,0 Z"
             style="fill:#219ebc;fill-opacity:1;fill-rule:nonzero;stroke:none"
             id="path154" />
        </g>
        <g
           id="g156"
           transform="matrix(3.1250002,0,0,3.1250002,1744.1251,721.53131)">
          <path
             d="m 3,0 c -2e-7,0.3978247 -0.076121,0.78050804 -0.2283618,1.1480502 -0.152241,0.3675421 -0.3690136,0.6919654 -0.650318,0.97327 -0.2813046,0.2813044 -0.6057279,0.498077 -0.97327,0.650318 C 0.78050804,2.9238791 0.3978247,2.9999998 0,3 -0.3978247,2.9999998 -0.78050804,2.923879 -1.1480502,2.7716382 -1.5155923,2.6193972 -1.8400156,2.4026246 -2.1213202,2.1213202 -2.4026246,1.8400156 -2.6193972,1.5155923 -2.7716382,1.1480502 -2.9238791,0.78050804 -2.9999998,0.3978247 -3,0 c 2e-7,-0.3978247 0.076121,-0.78050804 0.2283618,-1.1480502 0.152241,-0.3675421 0.3690136,-0.6919654 0.650318,-0.97327 0.2813046,-0.2813044 0.6057279,-0.498077 0.97327,-0.650318 C -0.78050804,-2.9238791 -0.3978247,-2.9999998 0,-3 c 0.3978247,2e-7 0.78050804,0.076121 1.1480502,0.2283618 0.3675421,0.152241 0.6919654,0.3690136 0.97327,0.650318 0.2813044,0.2813046 0.498077,0.6057279 0.650318,0.97327 C 2.9238791,-0.78050804 2.9999998,-0.3978247 3,0 Z"
             style="fill:#219ebc;fill-opacity:1;fill-rule:nonzero;stroke:none"
             id="path158" />
        </g>
        <g
           id="g160"
           transform="matrix(3.1250002,0,0,3.1250002,1926.4689,751.5)">
          <path
             d="m 3,0 c -2e-7,0.3978247 -0.076121,0.78050804 -0.2283618,1.1480502 -0.152241,0.3675421 -0.3690136,0.6919654 -0.650318,0.97327 -0.2813046,0.2813044 -0.6057279,0.498077 -0.97327,0.650318 C 0.78050804,2.9238791 0.3978247,2.9999998 0,3 -0.3978247,2.9999998 -0.78050804,2.923879 -1.1480502,2.7716382 -1.5155923,2.6193972 -1.8400156,2.4026246 -2.1213202,2.1213202 -2.4026246,1.8400156 -2.6193972,1.5155923 -2.7716382,1.1480502 -2.9238791,0.78050804 -2.9999998,0.3978247 -3,0 c 2e-7,-0.3978247 0.076121,-0.78050804 0.2283618,-1.1480502 0.152241,-0.3675421 0.3690136,-0.6919654 0.650318,-0.97327 0.2813046,-0.2813044 0.6057279,-0.498077 0.97327,-0.650318 C -0.78050804,-2.9238791 -0.3978247,-2.9999998 0,-3 c 0.3978247,2e-7 0.78050804,0.076121 1.1480502,0.2283618 0.3675421,0.152241 0.6919654,0.3690136 0.97327,0.650318 0.2813044,0.2813046 0.498077,0.6057279 0.650318,0.97327 C 2.9238791,-0.78050804 2.9999998,-0.3978247 3,0 Z"
             style="fill:#219ebc;fill-opacity:1;fill-rule:nonzero;stroke:none"
             id="path162" />
        </g>
        <g
           id="g164"
           transform="matrix(3.1250002,0,0,3.1250002,2139.094,766.09375)">
          <path
             d="m 3,0 c -2e-7,0.3978247 -0.076121,0.78050804 -0.2283618,1.1480502 -0.152241,0.3675421 -0.3690136,0.6919654 -0.650318,0.97327 -0.2813046,0.2813044 -0.6057279,0.498077 -0.97327,0.650318 C 0.78050804,2.9238791 0.3978247,2.9999998 0,3 -0.3978247,2.9999998 -0.78050804,2.923879 -1.1480502,2.7716382 -1.5155923,2.6193972 -1.8400156,2.4026246 -2.1213202,2.1213202 -2.4026246,1.8400156 -2.6193972,1.5155923 -2.7716382,1.1480502 -2.9238791,0.78050804 -2.9999998,0.3978247 -3,0 c 2e-7,-0.3978247 0.076121,-0.78050804 0.2283618,-1.1480502 0.152241,-0.3675421 0.3690136,-0.6919654 0.650318,-0.97327 0.2813046,-0.2813044 0.6057279,-0.498077 0.97327,-0.650318 C -0.78050804,-2.9238791 -0.3978247,-2.9999998 0,-3 c 0.3978247,2e-7 0.78050804,0.076121 1.1480502,0.2283618 0.3675421,0.152241 0.6919654,0.3690136 0.97327,0.650318 0.2813044,0.2813046 0.498077,0.6057279 0.650318,0.97327 C 2.9238791,-0.78050804 2.9999998,-0.3978247 3,0 Z"
             style="fill:#219ebc;fill-opacity:1;fill-rule:nonzero;stroke:none"
             id="path166" />
        </g>
        <g
           id="g168"
           transform="matrix(3.1250002,0,0,3.1250002,2243.5627,752.8125)">
          <path
             d="m 3,0 c -2e-7,0.3978247 -0.076121,0.78050804 -0.2283618,1.1480502 -0.152241,0.3675421 -0.3690136,0.6919654 -0.650318,0.97327 -0.2813046,0.2813044 -0.6057279,0.498077 -0.97327,0.650318 C 0.78050804,2.9238791 0.3978247,2.9999998 0,3 -0.3978247,2.9999998 -0.78050804,2.923879 -1.1480502,2.7716382 -1.5155923,2.6193972 -1.8400156,2.4026246 -2.1213202,2.1213202 -2.4026246,1.8400156 -2.6193972,1.5155923 -2.7716382,1.1480502 -2.9238791,0.78050804 -2.9999998,0.3978247 -3,0 c 2e-7,-0.3978247 0.076121,-0.78050804 0.2283618,-1.1480502 0.152241,-0.3675421 0.3690136,-0.6919654 0.650318,-0.97327 0.2813046,-0.2813044 0.6057279,-0.498077 0.97327,-0.650318 C -0.78050804,-2.9238791 -0.3978247,-2.9999998 0,-3 c 0.3978247,2e-7 0.78050804,0.076121 1.1480502,0.2283618 0.3675421,0.152241 0.6919654,0.3690136 0.97327,0.650318 0.2813044,0.2813046 0.498077,0.6057279 0.650318,0.97327 C 2.9238791,-0.78050804 2.9999998,-0.3978247 3,0 Z"
             style="fill:#219ebc;fill-opacity:1;fill-rule:nonzero;stroke:none"
             id="path170" />
        </g>
        <g
           id="g172"
           transform="matrix(3.1250002,0,0,3.1250002,2445.9065,745.59381)">
          <path
             d="m 3,0 c -2e-7,0.3978247 -0.076121,0.78050804 -0.2283618,1.1480502 -0.152241,0.3675421 -0.3690136,0.6919654 -0.650318,0.97327 -0.2813046,0.2813044 -0.6057279,0.498077 -0.97327,0.650318 C 0.78050804,2.9238791 0.3978247,2.9999998 0,3 -0.3978247,2.9999998 -0.78050804,2.923879 -1.1480502,2.7716382 -1.5155923,2.6193972 -1.8400156,2.4026246 -2.1213202,2.1213202 -2.4026246,1.8400156 -2.6193972,1.5155923 -2.7716382,1.1480502 -2.9238791,0.78050804 -2.9999998,0.3978247 -3,0 c 2e-7,-0.3978247 0.076121,-0.78050804 0.2283618,-1.1480502 0.152241,-0.3675421 0.3690136,-0.6919654 0.650318,-0.97327 0.2813046,-0.2813044 0.6057279,-0.498077 0.97327,-0.650318 C -0.78050804,-2.9238791 -0.3978247,-2.9999998 0,-3 c 0.3978247,2e-7 0.78050804,0.076121 1.1480502,0.2283618 0.3675421,0.152241 0.6919654,0.3690136 0.97327,0.650318 0.2813044,0.2813046 0.498077,0.6057279 0.650318,0.97327 C 2.9238791,-0.78050804 2.9999998,-0.3978247 3,0 Z"
             style="fill:#219ebc;fill-opacity:1;fill-rule:nonzero;stroke:none"
             id="path174" />
        </g>
        <g
           id="g176"
           transform="matrix(3.1250002,0,0,3.1250002,2951.0002,735.68756)">
          <path
             d="m 3,0 c -2e-7,0.3978247 -0.076121,0.78050804 -0.2283618,1.1480502 -0.152241,0.3675421 -0.3690136,0.6919654 -0.650318,0.97327 -0.2813046,0.2813044 -0.6057279,0.498077 -0.97327,0.650318 C 0.78050804,2.9238791 0.3978247,2.9999998 0,3 -0.3978247,2.9999998 -0.78050804,2.923879 -1.1480502,2.7716382 -1.5155923,2.6193972 -1.8400156,2.4026246 -2.1213202,2.1213202 -2.4026246,1.8400156 -2.6193972,1.5155923 -2.7716382,1.1480502 -2.9238791,0.78050804 -2.9999998,0.3978247 -3,0 c 2e-7,-0.3978247 0.076121,-0.78050804 0.2283618,-1.1480502 0.152241,-0.3675421 0.3690136,-0.6919654 0.650318,-0.97327 0.2813046,-0.2813044 0.6057279,-0.498077 0.97327,-0.650318 C -0.78050804,-2.9238791 -0.3978247,-2.9999998 0,-3 c 0.3978247,2e-7 0.78050804,0.076121 1.1480502,0.2283618 0.3675421,0.152241 0.6919654,0.3690136 0.97327,0.650318 0.2813044,0.2813046 0.498077,0.6057279 0.650318,0.97327 C 2.9238791,-0.78050804 2.9999998,-0.3978247 3,0 Z"
             style="fill:#219ebc;fill-opacity:1;fill-rule:nonzero;stroke:none"
             id="path178" />
        </g>
        <g
           id="g180"
           transform="matrix(3.1250002,0,0,3.1250002,3173.7502,742.84381)">
          <path
             d="m 3,0 c -2e-7,0.3978247 -0.076121,0.78050804 -0.2283618,1.1480502 -0.152241,0.3675421 -0.3690136,0.6919654 -0.650318,0.97327 -0.2813046,0.2813044 -0.6057279,0.498077 -0.97327,0.650318 C 0.78050804,2.9238791 0.3978247,2.9999998 0,3 -0.3978247,2.9999998 -0.78050804,2.923879 -1.1480502,2.7716382 -1.5155923,2.6193972 -1.8400156,2.4026246 -2.1213202,2.1213202 -2.4026246,1.8400156 -2.6193972,1.5155923 -2.7716382,1.1480502 -2.9238791,0.78050804 -2.9999998,0.3978247 -3,0 c 2e-7,-0.3978247 0.076121,-0.78050804 0.2283618,-1.1480502 0.152241,-0.3675421 0.3690136,-0.6919654 0.650318,-0.97327 0.2813046,-0.2813044 0.6057279,-0.498077 0.97327,-0.650318 C -0.78050804,-2.9238791 -0.3978247,-2.9999998 0,-3 c 0.3978247,2e-7 0.78050804,0.076121 1.1480502,0.2283618 0.3675421,0.152241 0.6919654,0.3690136 0.97327,0.650318 0.2813044,0.2813046 0.498077,0.6057279 0.650318,0.97327 C 2.9238791,-0.78050804 2.9999998,-0.3978247 3,0 Z"
             style="fill:#219ebc;fill-opacity:1;fill-rule:nonzero;stroke:none"
             id="path182" />
        </g>
        <g
           id="g184"
           transform="matrix(3.1250002,0,0,3.1250002,353.12503,181.25002)">
          <path
             d="M 57.630001,362.95999 V 261.04001 M 45.619999,362.95999 V 261.04001 h 28.479999 v 101.91998 z m 0,-50.95999 H 33.080002 m 41.019996,0 h 22.489998 m -63.509994,25.48001 v -50.96002 m 63.509994,50.96002 v -50.96002"
             style="fill:#023047;fill-opacity:0.5;fill-rule:nonzero;stroke:none"
             id="path186" />
          <path
             d="M 57.630001,362.95999 V 261.04001 M 45.619999,362.95999 V 261.04001 h 28.479999 v 101.91998 z m 0,-50.95999 H 33.080002 m 41.019996,0 h 22.489998 m -63.509994,25.48001 v -50.96002 m 63.509994,50.96002 v -50.96002"
             style="fill:none;stroke:#023047;stroke-width:1;stroke-linecap:butt;stroke-linejoin:miter;stroke-miterlimit:10;stroke-dasharray:none;stroke-opacity:1"
             id="path188" />
        </g>
        <g
           id="g190"
           transform="matrix(3.1250002,0,0,3.1250002,456.50006,1373.1251)">
          <path
             d="m 3,0 c -2e-7,0.3978247 -0.076121,0.78050804 -0.2283618,1.1480502 -0.152241,0.3675421 -0.3690136,0.6919654 -0.650318,0.97327 -0.2813046,0.2813044 -0.6057279,0.498077 -0.97327,0.650318 C 0.78050804,2.9238791 0.3978247,2.9999998 0,3 -0.3978247,2.9999998 -0.78050804,2.923879 -1.1480502,2.7716382 -1.5155923,2.6193972 -1.8400156,2.4026246 -2.1213202,2.1213202 -2.4026246,1.8400156 -2.6193972,1.5155923 -2.7716382,1.1480502 -2.9238791,0.78050804 -2.9999998,0.3978247 -3,0 c 2e-7,-0.3978247 0.076121,-0.78050804 0.2283618,-1.1480502 0.152241,-0.3675421 0.3690136,-0.6919654 0.650318,-0.97327 0.2813046,-0.2813044 0.6057279,-0.498077 0.97327,-0.650318 C -0.78050804,-2.9238791 -0.3978247,-2.9999998 0,-3 c 0.3978247,2e-7 0.78050804,0.076121 1.1480502,0.2283618 0.3675421,0.152241 0.6919654,0.3690136 0.97327,0.650318 0.2813044,0.2813046 0.498077,0.6057279 0.650318,0.97327 C 2.9238791,-0.78050804 2.9999998,-0.3978247 3,0 Z"
             style="fill:#023047;fill-opacity:1;fill-rule:nonzero;stroke:none"
             id="path192" />
        </g>
        <g
           id="g194"
           transform="matrix(3.1250002,0,0,3.1250002,458.12503,1423.8126)">
          <path
             d="m 3,0 c -2e-7,0.3978247 -0.076121,0.78050804 -0.2283618,1.1480502 -0.152241,0.3675421 -0.3690136,0.6919654 -0.650318,0.97327 -0.2813046,0.2813044 -0.6057279,0.498077 -0.97327,0.650318 C 0.78050804,2.9238791 0.3978247,2.9999998 0,3 -0.3978247,2.9999998 -0.78050804,2.923879 -1.1480502,2.7716382 -1.5155923,2.6193972 -1.8400156,2.4026246 -2.1213202,2.1213202 -2.4026246,1.8400156 -2.6193972,1.5155923 -2.7716382,1.1480502 -2.9238791,0.78050804 -2.9999998,0.3978247 -3,0 c 2e-7,-0.3978247 0.076121,-0.78050804 0.2283618,-1.1480502 0.152241,-0.3675421 0.3690136,-0.6919654 0.650318,-0.97327 0.2813046,-0.2813044 0.6057279,-0.498077 0.97327,-0.650318 C -0.78050804,-2.9238791 -0.3978247,-2.9999998 0,-3 c 0.3978247,2e-7 0.78050804,0.076121 1.1480502,0.2283618 0.3675421,0.152241 0.6919654,0.3690136 0.97327,0.650318 0.2813044,0.2813046 0.498077,0.6057279 0.650318,0.97327 C 2.9238791,-0.78050804 2.9999998,-0.3978247 3,0 Z"
             style="fill:#023047;fill-opacity:1;fill-rule:nonzero;stroke:none"
             id="path196" />
        </g>
        <g
           id="g198"
           transform="matrix(3.1250002,0,0,3.1250002,471.28131,1358.0939)">
          <path
             d="m 3,0 c -2e-7,0.3978247 -0.076121,0.78050804 -0.2283618,1.1480502 -0.152241,0.3675421 -0.3690136,0.6919654 -0.650318,0.97327 -0.2813046,0.2813044 -0.6057279,0.498077 -0.97327,0.650318 C 0.78050804,2.9238791 0.3978247,2.9999998 0,3 -0.3978247,2.9999998 -0.78050804,2.923879 -1.1480502,2.7716382 -1.5155923,2.6193972 -1.8400156,2.4026246 -2.1213202,2.1213202 -2.4026246,1.8400156 -2.6193972,1.5155923 -2.7716382,1.1480502 -2.9238791,0.78050804 -2.9999998,0.3978247 -3,0 c 2e-7,-0.3978247 0.076121,-0.78050804 0.2283618,-1.1480502 0.152241,-0.3675421 0.3690136,-0.6919654 0.650318,-0.97327 0.2813046,-0.2813044 0.6057279,-0.498077 0.97327,-0.650318 C -0.78050804,-2.9238791 -0.3978247,-2.9999998 0,-3 c 0.3978247,2e-7 0.78050804,0.076121 1.1480502,0.2283618 0.3675421,0.152241 0.6919654,0.3690136 0.97327,0.650318 0.2813044,0.2813046 0.498077,0.6057279 0.650318,0.97327 C 2.9238791,-0.78050804 2.9999998,-0.3978247 3,0 Z"
             style="fill:#023047;fill-opacity:1;fill-rule:nonzero;stroke:none"
             id="path200" />
        </g>
        <g
           id="g202"
           transform="matrix(3.1250002,0,0,3.1250002,476.40631,1432.4376)">
          <path
             d="m 3,0 c -2e-7,0.3978247 -0.076121,0.78050804 -0.2283618,1.1480502 -0.152241,0.3675421 -0.3690136,0.6919654 -0.650318,0.97327 -0.2813046,0.2813044 -0.6057279,0.498077 -0.97327,0.650318 C 0.78050804,2.9238791 0.3978247,2.9999998 0,3 -0.3978247,2.9999998 -0.78050804,2.923879 -1.1480502,2.7716382 -1.5155923,2.6193972 -1.8400156,2.4026246 -2.1213202,2.1213202 -2.4026246,1.8400156 -2.6193972,1.5155923 -2.7716382,1.1480502 -2.9238791,0.78050804 -2.9999998,0.3978247 -3,0 c 2e-7,-0.3978247 0.076121,-0.78050804 0.2283618,-1.1480502 0.152241,-0.3675421 0.3690136,-0.6919654 0.650318,-0.97327 0.2813046,-0.2813044 0.6057279,-0.498077 0.97327,-0.650318 C -0.78050804,-2.9238791 -0.3978247,-2.9999998 0,-3 c 0.3978247,2e-7 0.78050804,0.076121 1.1480502,0.2283618 0.3675421,0.152241 0.6919654,0.3690136 0.97327,0.650318 0.2813044,0.2813046 0.498077,0.6057279 0.650318,0.97327 C 2.9238791,-0.78050804 2.9999998,-0.3978247 3,0 Z"
             style="fill:#023047;fill-opacity:1;fill-rule:nonzero;stroke:none"
             id="path204" />
        </g>
        <g
           id="g206"
           transform="matrix(3.1250002,0,0,3.1250002,486.62506,1406.3751)">
          <path
             d="m 3,0 c -2e-7,0.3978247 -0.076121,0.78050804 -0.2283618,1.1480502 -0.152241,0.3675421 -0.3690136,0.6919654 -0.650318,0.97327 -0.2813046,0.2813044 -0.6057279,0.498077 -0.97327,0.650318 C 0.78050804,2.9238791 0.3978247,2.9999998 0,3 -0.3978247,2.9999998 -0.78050804,2.923879 -1.1480502,2.7716382 -1.5155923,2.6193972 -1.8400156,2.4026246 -2.1213202,2.1213202 -2.4026246,1.8400156 -2.6193972,1.5155923 -2.7716382,1.1480502 -2.9238791,0.78050804 -2.9999998,0.3978247 -3,0 c 2e-7,-0.3978247 0.076121,-0.78050804 0.2283618,-1.1480502 0.152241,-0.3675421 0.3690136,-0.6919654 0.650318,-0.97327 0.2813046,-0.2813044 0.6057279,-0.498077 0.97327,-0.650318 C -0.78050804,-2.9238791 -0.3978247,-2.9999998 0,-3 c 0.3978247,2e-7 0.78050804,0.076121 1.1480502,0.2283618 0.3675421,0.152241 0.6919654,0.3690136 0.97327,0.650318 0.2813044,0.2813046 0.498077,0.6057279 0.650318,0.97327 C 2.9238791,-0.78050804 2.9999998,-0.3978247 3,0 Z"
             style="fill:#023047;fill-opacity:1;fill-rule:nonzero;stroke:none"
             id="path208" />
        </g>
        <g
           id="g210"
           transform="matrix(3.1250002,0,0,3.1250002,495.68753,1370.9376)">
          <path
             d="m 3,0 c -2e-7,0.3978247 -0.076121,0.78050804 -0.2283618,1.1480502 -0.152241,0.3675421 -0.3690136,0.6919654 -0.650318,0.97327 -0.2813046,0.2813044 -0.6057279,0.498077 -0.97327,0.650318 C 0.78050804,2.9238791 0.3978247,2.9999998 0,3 -0.3978247,2.9999998 -0.78050804,2.923879 -1.1480502,2.7716382 -1.5155923,2.6193972 -1.8400156,2.4026246 -2.1213202,2.1213202 -2.4026246,1.8400156 -2.6193972,1.5155923 -2.7716382,1.1480502 -2.9238791,0.78050804 -2.9999998,0.3978247 -3,0 c 2e-7,-0.3978247 0.076121,-0.78050804 0.2283618,-1.1480502 0.152241,-0.3675421 0.3690136,-0.6919654 0.650318,-0.97327 0.2813046,-0.2813044 0.6057279,-0.498077 0.97327,-0.650318 C -0.78050804,-2.9238791 -0.3978247,-2.9999998 0,-3 c 0.3978247,2e-7 0.78050804,0.076121 1.1480502,0.2283618 0.3675421,0.152241 0.6919654,0.3690136 0.97327,0.650318 0.2813044,0.2813046 0.498077,0.6057279 0.650318,0.97327 C 2.9238791,-0.78050804 2.9999998,-0.3978247 3,0 Z"
             style="fill:#023047;fill-opacity:1;fill-rule:nonzero;stroke:none"
             id="path212" />
        </g>
        <g
           id="g214"
           transform="matrix(3.1250002,0,0,3.1250002,498.15631,1396.6251)">
          <path
             d="m 3,0 c -2e-7,0.3978247 -0.076121,0.78050804 -0.2283618,1.1480502 -0.152241,0.3675421 -0.3690136,0.6919654 -0.650318,0.97327 -0.2813046,0.2813044 -0.6057279,0.498077 -0.97327,0.650318 C 0.78050804,2.9238791 0.3978247,2.9999998 0,3 -0.3978247,2.9999998 -0.78050804,2.923879 -1.1480502,2.7716382 -1.5155923,2.6193972 -1.8400156,2.4026246 -2.1213202,2.1213202 -2.4026246,1.8400156 -2.6193972,1.5155923 -2.7716382,1.1480502 -2.9238791,0.78050804 -2.9999998,0.3978247 -3,0 c 2e-7,-0.3978247 0.076121,-0.78050804 0.2283618,-1.1480502 0.152241,-0.3675421 0.3690136,-0.6919654 0.650318,-0.97327 0.2813046,-0.2813044 0.6057279,-0.498077 0.97327,-0.650318 C -0.78050804,-2.9238791 -0.3978247,-2.9999998 0,-3 c 0.3978247,2e-7 0.78050804,0.076121 1.1480502,0.2283618 0.3675421,0.152241 0.6919654,0.3690136 0.97327,0.650318 0.2813044,0.2813046 0.498077,0.6057279 0.650318,0.97327 C 2.9238791,-0.78050804 2.9999998,-0.3978247 3,0 Z"
             style="fill:#023047;fill-opacity:1;fill-rule:nonzero;stroke:none"
             id="path216" />
        </g>
        <g
           id="g218"
           transform="matrix(3.1250002,0,0,3.1250002,499.65631,1383.1251)">
          <path
             d="m 3,0 c -2e-7,0.3978247 -0.076121,0.78050804 -0.2283618,1.1480502 -0.152241,0.3675421 -0.3690136,0.6919654 -0.650318,0.97327 -0.2813046,0.2813044 -0.6057279,0.498077 -0.97327,0.650318 C 0.78050804,2.9238791 0.3978247,2.9999998 0,3 -0.3978247,2.9999998 -0.78050804,2.923879 -1.1480502,2.7716382 -1.5155923,2.6193972 -1.8400156,2.4026246 -2.1213202,2.1213202 -2.4026246,1.8400156 -2.6193972,1.5155923 -2.7716382,1.1480502 -2.9238791,0.78050804 -2.9999998,0.3978247 -3,0 c 2e-7,-0.3978247 0.076121,-0.78050804 0.2283618,-1.1480502 0.152241,-0.3675421 0.3690136,-0.6919654 0.650318,-0.97327 0.2813046,-0.2813044 0.6057279,-0.498077 0.97327,-0.650318 C -0.78050804,-2.9238791 -0.3978247,-2.9999998 0,-3 c 0.3978247,2e-7 0.78050804,0.076121 1.1480502,0.2283618 0.3675421,0.152241 0.6919654,0.3690136 0.97327,0.650318 0.2813044,0.2813046 0.498077,0.6057279 0.650318,0.97327 C 2.9238791,-0.78050804 2.9999998,-0.3978247 3,0 Z"
             style="fill:#023047;fill-opacity:1;fill-rule:nonzero;stroke:none"
             id="path220" />
        </g>
        <g
           id="g222"
           transform="matrix(3.1250002,0,0,3.1250002,514.34381,1408.2501)">
          <path
             d="m 3,0 c -2e-7,0.3978247 -0.076121,0.78050804 -0.2283618,1.1480502 -0.152241,0.3675421 -0.3690136,0.6919654 -0.650318,0.97327 -0.2813046,0.2813044 -0.6057279,0.498077 -0.97327,0.650318 C 0.78050804,2.9238791 0.3978247,2.9999998 0,3 -0.3978247,2.9999998 -0.78050804,2.923879 -1.1480502,2.7716382 -1.5155923,2.6193972 -1.8400156,2.4026246 -2.1213202,2.1213202 -2.4026246,1.8400156 -2.6193972,1.5155923 -2.7716382,1.1480502 -2.9238791,0.78050804 -2.9999998,0.3978247 -3,0 c 2e-7,-0.3978247 0.076121,-0.78050804 0.2283618,-1.1480502 0.152241,-0.3675421 0.3690136,-0.6919654 0.650318,-0.97327 0.2813046,-0.2813044 0.6057279,-0.498077 0.97327,-0.650318 C -0.78050804,-2.9238791 -0.3978247,-2.9999998 0,-3 c 0.3978247,2e-7 0.78050804,0.076121 1.1480502,0.2283618 0.3675421,0.152241 0.6919654,0.3690136 0.97327,0.650318 0.2813044,0.2813046 0.498077,0.6057279 0.650318,0.97327 C 2.9238791,-0.78050804 2.9999998,-0.3978247 3,0 Z"
             style="fill:#023047;fill-opacity:1;fill-rule:nonzero;stroke:none"
             id="path224" />
        </g>
        <g
           id="g226"
           transform="matrix(3.1250002,0,0,3.1250002,517.25006,1424.5939)">
          <path
             d="m 3,0 c -2e-7,0.3978247 -0.076121,0.78050804 -0.2283618,1.1480502 -0.152241,0.3675421 -0.3690136,0.6919654 -0.650318,0.97327 -0.2813046,0.2813044 -0.6057279,0.498077 -0.97327,0.650318 C 0.78050804,2.9238791 0.3978247,2.9999998 0,3 -0.3978247,2.9999998 -0.78050804,2.923879 -1.1480502,2.7716382 -1.5155923,2.6193972 -1.8400156,2.4026246 -2.1213202,2.1213202 -2.4026246,1.8400156 -2.6193972,1.5155923 -2.7716382,1.1480502 -2.9238791,0.78050804 -2.9999998,0.3978247 -3,0 c 2e-7,-0.3978247 0.076121,-0.78050804 0.2283618,-1.1480502 0.152241,-0.3675421 0.3690136,-0.6919654 0.650318,-0.97327 0.2813046,-0.2813044 0.6057279,-0.498077 0.97327,-0.650318 C -0.78050804,-2.9238791 -0.3978247,-2.9999998 0,-3 c 0.3978247,2e-7 0.78050804,0.076121 1.1480502,0.2283618 0.3675421,0.152241 0.6919654,0.3690136 0.97327,0.650318 0.2813044,0.2813046 0.498077,0.6057279 0.650318,0.97327 C 2.9238791,-0.78050804 2.9999998,-0.3978247 3,0 Z"
             style="fill:#023047;fill-opacity:1;fill-rule:nonzero;stroke:none"
             id="path228" />
        </g>
        <g
           id="g230"
           transform="matrix(3.1250002,0,0,3.1250002,522.75006,1384.0314)">
          <path
             d="m 3,0 c -2e-7,0.3978247 -0.076121,0.78050804 -0.2283618,1.1480502 -0.152241,0.3675421 -0.3690136,0.6919654 -0.650318,0.97327 -0.2813046,0.2813044 -0.6057279,0.498077 -0.97327,0.650318 C 0.78050804,2.9238791 0.3978247,2.9999998 0,3 -0.3978247,2.9999998 -0.78050804,2.923879 -1.1480502,2.7716382 -1.5155923,2.6193972 -1.8400156,2.4026246 -2.1213202,2.1213202 -2.4026246,1.8400156 -2.6193972,1.5155923 -2.7716382,1.1480502 -2.9238791,0.78050804 -2.9999998,0.3978247 -3,0 c 2e-7,-0.3978247 0.076121,-0.78050804 0.2283618,-1.1480502 0.152241,-0.3675421 0.3690136,-0.6919654 0.650318,-0.97327 0.2813046,-0.2813044 0.6057279,-0.498077 0.97327,-0.650318 C -0.78050804,-2.9238791 -0.3978247,-2.9999998 0,-3 c 0.3978247,2e-7 0.78050804,0.076121 1.1480502,0.2283618 0.3675421,0.152241 0.6919654,0.3690136 0.97327,0.650318 0.2813044,0.2813046 0.498077,0.6057279 0.650318,0.97327 C 2.9238791,-0.78050804 2.9999998,-0.3978247 3,0 Z"
             style="fill:#023047;fill-opacity:1;fill-rule:nonzero;stroke:none"
             id="path232" />
        </g>
        <g
           id="g234"
           transform="matrix(3.1250002,0,0,3.1250002,543.68756,1408.4064)">
          <path
             d="m 3,0 c -2e-7,0.3978247 -0.076121,0.78050804 -0.2283618,1.1480502 -0.152241,0.3675421 -0.3690136,0.6919654 -0.650318,0.97327 -0.2813046,0.2813044 -0.6057279,0.498077 -0.97327,0.650318 C 0.78050804,2.9238791 0.3978247,2.9999998 0,3 -0.3978247,2.9999998 -0.78050804,2.923879 -1.1480502,2.7716382 -1.5155923,2.6193972 -1.8400156,2.4026246 -2.1213202,2.1213202 -2.4026246,1.8400156 -2.6193972,1.5155923 -2.7716382,1.1480502 -2.9238791,0.78050804 -2.9999998,0.3978247 -3,0 c 2e-7,-0.3978247 0.076121,-0.78050804 0.2283618,-1.1480502 0.152241,-0.3675421 0.3690136,-0.6919654 0.650318,-0.97327 0.2813046,-0.2813044 0.6057279,-0.498077 0.97327,-0.650318 C -0.78050804,-2.9238791 -0.3978247,-2.9999998 0,-3 c 0.3978247,2e-7 0.78050804,0.076121 1.1480502,0.2283618 0.3675421,0.152241 0.6919654,0.3690136 0.97327,0.650318 0.2813044,0.2813046 0.498077,0.6057279 0.650318,0.97327 C 2.9238791,-0.78050804 2.9999998,-0.3978247 3,0 Z"
             style="fill:#023047;fill-opacity:1;fill-rule:nonzero;stroke:none"
             id="path236" />
        </g>
        <g
           id="g238"
           transform="matrix(3.1250002,0,0,3.1250002,553.46881,1369.875)">
          <path
             d="m 3,0 c -2e-7,0.3978247 -0.076121,0.78050804 -0.2283618,1.1480502 -0.152241,0.3675421 -0.3690136,0.6919654 -0.650318,0.97327 -0.2813046,0.2813044 -0.6057279,0.498077 -0.97327,0.650318 C 0.78050804,2.9238791 0.3978247,2.9999998 0,3 -0.3978247,2.9999998 -0.78050804,2.923879 -1.1480502,2.7716382 -1.5155923,2.6193972 -1.8400156,2.4026246 -2.1213202,2.1213202 -2.4026246,1.8400156 -2.6193972,1.5155923 -2.7716382,1.1480502 -2.9238791,0.78050804 -2.9999998,0.3978247 -3,0 c 2e-7,-0.3978247 0.076121,-0.78050804 0.2283618,-1.1480502 0.152241,-0.3675421 0.3690136,-0.6919654 0.650318,-0.97327 0.2813046,-0.2813044 0.6057279,-0.498077 0.97327,-0.650318 C -0.78050804,-2.9238791 -0.3978247,-2.9999998 0,-3 c 0.3978247,2e-7 0.78050804,0.076121 1.1480502,0.2283618 0.3675421,0.152241 0.6919654,0.3690136 0.97327,0.650318 0.2813044,0.2813046 0.498077,0.6057279 0.650318,0.97327 C 2.9238791,-0.78050804 2.9999998,-0.3978247 3,0 Z"
             style="fill:#023047;fill-opacity:1;fill-rule:nonzero;stroke:none"
             id="path240" />
        </g>
        <g
           id="g242"
           transform="matrix(3.1250002,0,0,3.1250002,559.62506,1436.5001)">
          <path
             d="m 3,0 c -2e-7,0.3978247 -0.076121,0.78050804 -0.2283618,1.1480502 -0.152241,0.3675421 -0.3690136,0.6919654 -0.650318,0.97327 -0.2813046,0.2813044 -0.6057279,0.498077 -0.97327,0.650318 C 0.78050804,2.9238791 0.3978247,2.9999998 0,3 -0.3978247,2.9999998 -0.78050804,2.923879 -1.1480502,2.7716382 -1.5155923,2.6193972 -1.8400156,2.4026246 -2.1213202,2.1213202 -2.4026246,1.8400156 -2.6193972,1.5155923 -2.7716382,1.1480502 -2.9238791,0.78050804 -2.9999998,0.3978247 -3,0 c 2e-7,-0.3978247 0.076121,-0.78050804 0.2283618,-1.1480502 0.152241,-0.3675421 0.3690136,-0.6919654 0.650318,-0.97327 0.2813046,-0.2813044 0.6057279,-0.498077 0.97327,-0.650318 C -0.78050804,-2.9238791 -0.3978247,-2.9999998 0,-3 c 0.3978247,2e-7 0.78050804,0.076121 1.1480502,0.2283618 0.3675421,0.152241 0.6919654,0.3690136 0.97327,0.650318 0.2813044,0.2813046 0.498077,0.6057279 0.650318,0.97327 C 2.9238791,-0.78050804 2.9999998,-0.3978247 3,0 Z"
             style="fill:#023047;fill-opacity:1;fill-rule:nonzero;stroke:none"
             id="path244" />
        </g>
        <g
           id="g246"
           transform="matrix(3.1250002,0,0,3.1250002,573.65631,1419.8439)">
          <path
             d="m 3,0 c -2e-7,0.3978247 -0.076121,0.78050804 -0.2283618,1.1480502 -0.152241,0.3675421 -0.3690136,0.6919654 -0.650318,0.97327 -0.2813046,0.2813044 -0.6057279,0.498077 -0.97327,0.650318 C 0.78050804,2.9238791 0.3978247,2.9999998 0,3 -0.3978247,2.9999998 -0.78050804,2.923879 -1.1480502,2.7716382 -1.5155923,2.6193972 -1.8400156,2.4026246 -2.1213202,2.1213202 -2.4026246,1.8400156 -2.6193972,1.5155923 -2.7716382,1.1480502 -2.9238791,0.78050804 -2.9999998,0.3978247 -3,0 c 2e-7,-0.3978247 0.076121,-0.78050804 0.2283618,-1.1480502 0.152241,-0.3675421 0.3690136,-0.6919654 0.650318,-0.97327 0.2813046,-0.2813044 0.6057279,-0.498077 0.97327,-0.650318 C -0.78050804,-2.9238791 -0.3978247,-2.9999998 0,-3 c 0.3978247,2e-7 0.78050804,0.076121 1.1480502,0.2283618 0.3675421,0.152241 0.6919654,0.3690136 0.97327,0.650318 0.2813044,0.2813046 0.498077,0.6057279 0.650318,0.97327 C 2.9238791,-0.78050804 2.9999998,-0.3978247 3,0 Z"
             style="fill:#023047;fill-opacity:1;fill-rule:nonzero;stroke:none"
             id="path248" />
        </g>
        <g
           id="g250"
           transform="matrix(3.1250002,0,0,3.1250002,577.28131,1356.6564)">
          <path
             d="m 3,0 c -2e-7,0.3978247 -0.076121,0.78050804 -0.2283618,1.1480502 -0.152241,0.3675421 -0.3690136,0.6919654 -0.650318,0.97327 -0.2813046,0.2813044 -0.6057279,0.498077 -0.97327,0.650318 C 0.78050804,2.9238791 0.3978247,2.9999998 0,3 -0.3978247,2.9999998 -0.78050804,2.923879 -1.1480502,2.7716382 -1.5155923,2.6193972 -1.8400156,2.4026246 -2.1213202,2.1213202 -2.4026246,1.8400156 -2.6193972,1.5155923 -2.7716382,1.1480502 -2.9238791,0.78050804 -2.9999998,0.3978247 -3,0 c 2e-7,-0.3978247 0.076121,-0.78050804 0.2283618,-1.1480502 0.152241,-0.3675421 0.3690136,-0.6919654 0.650318,-0.97327 0.2813046,-0.2813044 0.6057279,-0.498077 0.97327,-0.650318 C -0.78050804,-2.9238791 -0.3978247,-2.9999998 0,-3 c 0.3978247,2e-7 0.78050804,0.076121 1.1480502,0.2283618 0.3675421,0.152241 0.6919654,0.3690136 0.97327,0.650318 0.2813044,0.2813046 0.498077,0.6057279 0.650318,0.97327 C 2.9238791,-0.78050804 2.9999998,-0.3978247 3,0 Z"
             style="fill:#023047;fill-opacity:1;fill-rule:nonzero;stroke:none"
             id="path252" />
        </g>
        <g
           id="g254"
           transform="matrix(3.1250002,0,0,3.1250002,584.68756,1404.0314)">
          <path
             d="m 3,0 c -2e-7,0.3978247 -0.076121,0.78050804 -0.2283618,1.1480502 -0.152241,0.3675421 -0.3690136,0.6919654 -0.650318,0.97327 -0.2813046,0.2813044 -0.6057279,0.498077 -0.97327,0.650318 C 0.78050804,2.9238791 0.3978247,2.9999998 0,3 -0.3978247,2.9999998 -0.78050804,2.923879 -1.1480502,2.7716382 -1.5155923,2.6193972 -1.8400156,2.4026246 -2.1213202,2.1213202 -2.4026246,1.8400156 -2.6193972,1.5155923 -2.7716382,1.1480502 -2.9238791,0.78050804 -2.9999998,0.3978247 -3,0 c 2e-7,-0.3978247 0.076121,-0.78050804 0.2283618,-1.1480502 0.152241,-0.3675421 0.3690136,-0.6919654 0.650318,-0.97327 0.2813046,-0.2813044 0.6057279,-0.498077 0.97327,-0.650318 C -0.78050804,-2.9238791 -0.3978247,-2.9999998 0,-3 c 0.3978247,2e-7 0.78050804,0.076121 1.1480502,0.2283618 0.3675421,0.152241 0.6919654,0.3690136 0.97327,0.650318 0.2813044,0.2813046 0.498077,0.6057279 0.650318,0.97327 C 2.9238791,-0.78050804 2.9999998,-0.3978247 3,0 Z"
             style="fill:#023047;fill-opacity:1;fill-rule:nonzero;stroke:none"
             id="path256" />
        </g>
        <g
           id="g258"
           transform="matrix(3.1250002,0,0,3.1250002,588.46881,1425.4376)">
          <path
             d="m 3,0 c -2e-7,0.3978247 -0.076121,0.78050804 -0.2283618,1.1480502 -0.152241,0.3675421 -0.3690136,0.6919654 -0.650318,0.97327 -0.2813046,0.2813044 -0.6057279,0.498077 -0.97327,0.650318 C 0.78050804,2.9238791 0.3978247,2.9999998 0,3 -0.3978247,2.9999998 -0.78050804,2.923879 -1.1480502,2.7716382 -1.5155923,2.6193972 -1.8400156,2.4026246 -2.1213202,2.1213202 -2.4026246,1.8400156 -2.6193972,1.5155923 -2.7716382,1.1480502 -2.9238791,0.78050804 -2.9999998,0.3978247 -3,0 c 2e-7,-0.3978247 0.076121,-0.78050804 0.2283618,-1.1480502 0.152241,-0.3675421 0.3690136,-0.6919654 0.650318,-0.97327 0.2813046,-0.2813044 0.6057279,-0.498077 0.97327,-0.650318 C -0.78050804,-2.9238791 -0.3978247,-2.9999998 0,-3 c 0.3978247,2e-7 0.78050804,0.076121 1.1480502,0.2283618 0.3675421,0.152241 0.6919654,0.3690136 0.97327,0.650318 0.2813044,0.2813046 0.498077,0.6057279 0.650318,0.97327 C 2.9238791,-0.78050804 2.9999998,-0.3978247 3,0 Z"
             style="fill:#023047;fill-opacity:1;fill-rule:nonzero;stroke:none"
             id="path260" />
        </g>
        <g
           id="g262"
           transform="matrix(3.1250002,0,0,3.1250002,592.34381,1406.4689)">
          <path
             d="m 3,0 c -2e-7,0.3978247 -0.076121,0.78050804 -0.2283618,1.1480502 -0.152241,0.3675421 -0.3690136,0.6919654 -0.650318,0.97327 -0.2813046,0.2813044 -0.6057279,0.498077 -0.97327,0.650318 C 0.78050804,2.9238791 0.3978247,2.9999998 0,3 -0.3978247,2.9999998 -0.78050804,2.923879 -1.1480502,2.7716382 -1.5155923,2.6193972 -1.8400156,2.4026246 -2.1213202,2.1213202 -2.4026246,1.8400156 -2.6193972,1.5155923 -2.7716382,1.1480502 -2.9238791,0.78050804 -2.9999998,0.3978247 -3,0 c 2e-7,-0.3978247 0.076121,-0.78050804 0.2283618,-1.1480502 0.152241,-0.3675421 0.3690136,-0.6919654 0.650318,-0.97327 0.2813046,-0.2813044 0.6057279,-0.498077 0.97327,-0.650318 C -0.78050804,-2.9238791 -0.3978247,-2.9999998 0,-3 c 0.3978247,2e-7 0.78050804,0.076121 1.1480502,0.2283618 0.3675421,0.152241 0.6919654,0.3690136 0.97327,0.650318 0.2813044,0.2813046 0.498077,0.6057279 0.650318,0.97327 C 2.9238791,-0.78050804 2.9999998,-0.3978247 3,0 Z"
             style="fill:#023047;fill-opacity:1;fill-rule:nonzero;stroke:none"
             id="path264" />
        </g>
        <g
           id="g266"
           transform="matrix(3.1250002,0,0,3.1250002,594.37506,1395.8751)">
          <path
             d="m 3,0 c -2e-7,0.3978247 -0.076121,0.78050804 -0.2283618,1.1480502 -0.152241,0.3675421 -0.3690136,0.6919654 -0.650318,0.97327 -0.2813046,0.2813044 -0.6057279,0.498077 -0.97327,0.650318 C 0.78050804,2.9238791 0.3978247,2.9999998 0,3 -0.3978247,2.9999998 -0.78050804,2.923879 -1.1480502,2.7716382 -1.5155923,2.6193972 -1.8400156,2.4026246 -2.1213202,2.1213202 -2.4026246,1.8400156 -2.6193972,1.5155923 -2.7716382,1.1480502 -2.9238791,0.78050804 -2.9999998,0.3978247 -3,0 c 2e-7,-0.3978247 0.076121,-0.78050804 0.2283618,-1.1480502 0.152241,-0.3675421 0.3690136,-0.6919654 0.650318,-0.97327 0.2813046,-0.2813044 0.6057279,-0.498077 0.97327,-0.650318 C -0.78050804,-2.9238791 -0.3978247,-2.9999998 0,-3 c 0.3978247,2e-7 0.78050804,0.076121 1.1480502,0.2283618 0.3675421,0.152241 0.6919654,0.3690136 0.97327,0.650318 0.2813044,0.2813046 0.498077,0.6057279 0.650318,0.97327 C 2.9238791,-0.78050804 2.9999998,-0.3978247 3,0 Z"
             style="fill:#023047;fill-opacity:1;fill-rule:nonzero;stroke:none"
             id="path268" />
        </g>
        <g
           id="g270"
           transform="matrix(3.1250002,0,0,3.1250002,597.15625,1380.2814)">
          <path
             d="m 3,0 c -2e-7,0.3978247 -0.076121,0.78050804 -0.2283618,1.1480502 -0.152241,0.3675421 -0.3690136,0.6919654 -0.650318,0.97327 -0.2813046,0.2813044 -0.6057279,0.498077 -0.97327,0.650318 C 0.78050804,2.9238791 0.3978247,2.9999998 0,3 -0.3978247,2.9999998 -0.78050804,2.923879 -1.1480502,2.7716382 -1.5155923,2.6193972 -1.8400156,2.4026246 -2.1213202,2.1213202 -2.4026246,1.8400156 -2.6193972,1.5155923 -2.7716382,1.1480502 -2.9238791,0.78050804 -2.9999998,0.3978247 -3,0 c 2e-7,-0.3978247 0.076121,-0.78050804 0.2283618,-1.1480502 0.152241,-0.3675421 0.3690136,-0.6919654 0.650318,-0.97327 0.2813046,-0.2813044 0.6057279,-0.498077 0.97327,-0.650318 C -0.78050804,-2.9238791 -0.3978247,-2.9999998 0,-3 c 0.3978247,2e-7 0.78050804,0.076121 1.1480502,0.2283618 0.3675421,0.152241 0.6919654,0.3690136 0.97327,0.650318 0.2813044,0.2813046 0.498077,0.6057279 0.650318,0.97327 C 2.9238791,-0.78050804 2.9999998,-0.3978247 3,0 Z"
             style="fill:#023047;fill-opacity:1;fill-rule:nonzero;stroke:none"
             id="path272" />
        </g>
        <g
           id="g274"
           transform="matrix(3.1250002,0,0,3.1250002,654.96875,1391.5939)">
          <path
             d="m 3,0 c -2e-7,0.3978247 -0.076121,0.78050804 -0.2283618,1.1480502 -0.152241,0.3675421 -0.3690136,0.6919654 -0.650318,0.97327 -0.2813046,0.2813044 -0.6057279,0.498077 -0.97327,0.650318 C 0.78050804,2.9238791 0.3978247,2.9999998 0,3 -0.3978247,2.9999998 -0.78050804,2.923879 -1.1480502,2.7716382 -1.5155923,2.6193972 -1.8400156,2.4026246 -2.1213202,2.1213202 -2.4026246,1.8400156 -2.6193972,1.5155923 -2.7716382,1.1480502 -2.9238791,0.78050804 -2.9999998,0.3978247 -3,0 c 2e-7,-0.3978247 0.076121,-0.78050804 0.2283618,-1.1480502 0.152241,-0.3675421 0.3690136,-0.6919654 0.650318,-0.97327 0.2813046,-0.2813044 0.6057279,-0.498077 0.97327,-0.650318 C -0.78050804,-2.9238791 -0.3978247,-2.9999998 0,-3 c 0.3978247,2e-7 0.78050804,0.076121 1.1480502,0.2283618 0.3675421,0.152241 0.6919654,0.3690136 0.97327,0.650318 0.2813044,0.2813046 0.498077,0.6057279 0.650318,0.97327 C 2.9238791,-0.78050804 2.9999998,-0.3978247 3,0 Z"
             style="fill:#023047;fill-opacity:1;fill-rule:nonzero;stroke:none"
             id="path276" />
        </g>
      </g>
    </g>
    <g
       id="g278">
      <g
         id="g280"
         clip-path="url(#clipPath284)">
        <g
           id="g286"
           transform="matrix(3.1250002,0,0,3.1250002,353.12503,25.000002)">
          <text
             xml:space="preserve"
             transform="translate(-3.890625,484)"
             style="font-variant:normal;font-weight:normal;font-size:14px;font-family:Arial;-inkscape-font-specification:ArialMT;writing-mode:lr-tb;fill:#242424;fill-opacity:1;fill-rule:nonzero;stroke:none"
             id="text290"><tspan
               x="0"
               y="0"
               id="tspan288">0</tspan></text>
        </g>
        <g
           id="g292"
           transform="matrix(3.1250002,0,0,3.1250002,653.75006,25.000002)">
          <text
             xml:space="preserve"
             transform="translate(-9.734375,484)"
             style="font-variant:normal;font-weight:normal;font-size:14px;font-family:Arial;-inkscape-font-specification:ArialMT;writing-mode:lr-tb;fill:#242424;fill-opacity:1;fill-rule:nonzero;stroke:none"
             id="text296"><tspan
               x="0 7.7861328 11.675781"
               y="0"
               id="tspan294">0.5</tspan></text>
        </g>
        <g
           id="g298"
           transform="matrix(3.1250002,0,0,3.1250002,954.37506,25.000002)">
          <text
             xml:space="preserve"
             transform="translate(-3.890625,484)"
             style="font-variant:normal;font-weight:normal;font-size:14px;font-family:Arial;-inkscape-font-specification:ArialMT;writing-mode:lr-tb;fill:#242424;fill-opacity:1;fill-rule:nonzero;stroke:none"
             id="text302"><tspan
               x="0"
               y="0"
               id="tspan300">1</tspan></text>
        </g>
        <g
           id="g304"
           transform="matrix(3.1250002,0,0,3.1250002,1255.0001,25.000002)">
          <text
             xml:space="preserve"
             transform="translate(-9.734375,484)"
             style="font-variant:normal;font-weight:normal;font-size:14px;font-family:Arial;-inkscape-font-specification:ArialMT;writing-mode:lr-tb;fill:#242424;fill-opacity:1;fill-rule:nonzero;stroke:none"
             id="text308"><tspan
               x="0 7.7861328 11.675781"
               y="0"
               id="tspan306">1.5</tspan></text>
        </g>
        <g
           id="g310"
           transform="matrix(3.1250002,0,0,3.1250002,1555.6251,25.000002)">
          <text
             xml:space="preserve"
             transform="translate(-3.890625,484)"
             style="font-variant:normal;font-weight:normal;font-size:14px;font-family:Arial;-inkscape-font-specification:ArialMT;writing-mode:lr-tb;fill:#242424;fill-opacity:1;fill-rule:nonzero;stroke:none"
             id="text314"><tspan
               x="0"
               y="0"
               id="tspan312">2</tspan></text>
        </g>
        <g
           id="g316"
           transform="matrix(3.1250002,0,0,3.1250002,1856.2501,25.000002)">
          <text
             xml:space="preserve"
             transform="translate(-9.734375,484)"
             style="font-variant:normal;font-weight:normal;font-size:14px;font-family:Arial;-inkscape-font-specification:ArialMT;writing-mode:lr-tb;fill:#242424;fill-opacity:1;fill-rule:nonzero;stroke:none"
             id="text320"><tspan
               x="0 7.7861328 11.675781"
               y="0"
               id="tspan318">2.5</tspan></text>
        </g>
        <g
           id="g322"
           transform="matrix(3.1250002,0,0,3.1250002,2156.8752,25.000002)">
          <text
             xml:space="preserve"
             transform="translate(-3.890625,484)"
             style="font-variant:normal;font-weight:normal;font-size:14px;font-family:Arial;-inkscape-font-specification:ArialMT;writing-mode:lr-tb;fill:#242424;fill-opacity:1;fill-rule:nonzero;stroke:none"
             id="text326"><tspan
               x="0"
               y="0"
               id="tspan324">3</tspan></text>
        </g>
        <g
           id="g328"
           transform="matrix(3.1250002,0,0,3.1250002,2457.5002,25.000002)">
          <text
             xml:space="preserve"
             transform="translate(-9.734375,484)"
             style="font-variant:normal;font-weight:normal;font-size:14px;font-family:Arial;-inkscape-font-specification:ArialMT;writing-mode:lr-tb;fill:#242424;fill-opacity:1;fill-rule:nonzero;stroke:none"
             id="text332"><tspan
               x="0 7.7861328 11.675781"
               y="0"
               id="tspan330">3.5</tspan></text>
        </g>
        <g
           id="g334"
           transform="matrix(3.1250002,0,0,3.1250002,2758.1252,25.000002)">
          <text
             xml:space="preserve"
             transform="translate(-3.890625,484)"
             style="font-variant:normal;font-weight:normal;font-size:14px;font-family:Arial;-inkscape-font-specification:ArialMT;writing-mode:lr-tb;fill:#242424;fill-opacity:1;fill-rule:nonzero;stroke:none"
             id="text338"><tspan
               x="0"
               y="0"
               id="tspan336">4</tspan></text>
        </g>
        <g
           id="g340"
           transform="matrix(3.1250002,0,0,3.1250002,3058.7502,25.000002)">
          <text
             xml:space="preserve"
             transform="translate(-9.734375,484)"
             style="font-variant:normal;font-weight:normal;font-size:14px;font-family:Arial;-inkscape-font-specification:ArialMT;writing-mode:lr-tb;fill:#242424;fill-opacity:1;fill-rule:nonzero;stroke:none"
             id="text344"><tspan
               x="0 7.7861328 11.675781"
               y="0"
               id="tspan342">4.5</tspan></text>
        </g>
        <g
           id="g346"
           transform="matrix(3.1250002,0,0,3.1250002,3359.3752,25.000002)">
          <text
             xml:space="preserve"
             transform="translate(-3.890625,484)"
             style="font-variant:normal;font-weight:normal;font-size:14px;font-family:Arial;-inkscape-font-specification:ArialMT;writing-mode:lr-tb;fill:#242424;fill-opacity:1;fill-rule:nonzero;stroke:none"
             id="text350"><tspan
               x="0"
               y="0"
               id="tspan348">5</tspan></text>
        </g>
        <g
           id="g352"
           transform="matrix(3.1250002,0,0,3.1250002,25.000002,1127.8126)">
          <text
             xml:space="preserve"
             transform="translate(37.0625,4.90625)"
             style="font-variant:normal;font-weight:normal;font-size:14px;font-family:Arial;-inkscape-font-specification:ArialMT;writing-mode:lr-tb;fill:#242424;fill-opacity:1;fill-rule:nonzero;stroke:none"
             id="text356"><tspan
               x="0 9.3378906 17.124023 24.124023 31.910156 39.696289 47.482422 55.268555 59.930664"
               y="0"
               id="tspan354">Secondary</tspan></text>
          <text
             xml:space="preserve"
             transform="translate(74.421875,23.09375)"
             style="font-variant:normal;font-weight:normal;font-size:14px;font-family:Arial;-inkscape-font-specification:ArialMT;writing-mode:lr-tb;fill:#242424;fill-opacity:1;fill-rule:nonzero;stroke:none"
             id="text360"><tspan
               x="0 7 10.889648 18.675781 26.461914"
               y="0"
               id="tspan358">steel</tspan></text>
        </g>
        <g
           id="g362"
           transform="matrix(3.1250002,0,0,3.1250002,25.000002,477.81253)">
          <text
             xml:space="preserve"
             transform="translate(55.765625,4.90625)"
             style="font-variant:normal;font-weight:normal;font-size:14px;font-family:Arial;-inkscape-font-specification:ArialMT;writing-mode:lr-tb;fill:#242424;fill-opacity:1;fill-rule:nonzero;stroke:none"
             id="text366"><tspan
               x="0 9.3378906 14 17.110352 28.772461 36.558594 41.220703"
               y="0"
               id="tspan364">Primary</tspan></text>
          <text
             xml:space="preserve"
             transform="translate(74.421875,23.09375)"
             style="font-variant:normal;font-weight:normal;font-size:14px;font-family:Arial;-inkscape-font-specification:ArialMT;writing-mode:lr-tb;fill:#242424;fill-opacity:1;fill-rule:nonzero;stroke:none"
             id="text370"><tspan
               x="0 7 10.889648 18.675781 26.461914"
               y="0"
               id="tspan368">steel</tspan></text>
        </g>
      </g>
    </g>
    <g
       id="g372">
      <g
         id="g374"
         clip-path="url(#clipPath378)">
        <g
           id="g380"
           transform="matrix(3.1250002,0,0,3.1250002,25.000002,25.000002)">
          <text
             xml:space="preserve"
             transform="translate(528.5625,513.25)"
             style="font-variant:normal;font-weight:normal;font-size:17px;font-family:Arial;-inkscape-font-specification:ArialMT;writing-mode:lr-tb;fill:#242424;fill-opacity:1;fill-rule:nonzero;stroke:none"
             id="text384"><tspan
               x="0 4.7231445 14.177734"
               y="0"
               id="tspan382">ton</tspan></text>
          <text
             xml:space="preserve"
             transform="translate(552.20313,516.8125)"
             style="font-variant:normal;font-weight:normal;font-size:11.9px;font-family:Arial;-inkscape-font-specification:ArialMT;writing-mode:lr-tb;fill:#242424;fill-opacity:1;fill-rule:nonzero;stroke:none"
             id="text388"><tspan
               x="0 8.5937958 17.849991 24.468201 31.086411"
               y="0"
               id="tspan386">CO2eq</tspan></text>
          <text
             xml:space="preserve"
             transform="translate(589.92188,513.25)"
             style="font-variant:normal;font-weight:normal;font-size:17px;font-family:Arial;-inkscape-font-specification:ArialMT;writing-mode:lr-tb;fill:#242424;fill-opacity:1;fill-rule:nonzero;stroke:none"
             id="text392"><tspan
               x="0 4.7231445 9.4462891 18.900879"
               y="0"
               id="tspan390">/ton</tspan></text>
          <text
             xml:space="preserve"
             transform="translate(618.28125,516.8125)"
             style="font-variant:normal;font-weight:normal;font-size:11.9px;font-family:Arial;-inkscape-font-specification:ArialMT;writing-mode:lr-tb;fill:#242424;fill-opacity:1;fill-rule:nonzero;stroke:none"
             id="text396"><tspan
               x="0 5.9499969 9.2561951 15.874405 22.492615"
               y="0"
               id="tspan394">steel</tspan></text>
        </g>
      </g>
    </g>
  </g>
</svg>
